<svg width="251" height="258" viewBox="0 0 251 258" fill="none" xmlns="http://www.w3.org/2000/svg">
<path d="M62.0566 90.7681C62.9188 93.826 62.9173 97.0452 62.0523 100.102C61.1873 103.16 59.4892 105.947 57.1286 108.185C54.7681 110.423 51.8281 112.032 48.6041 112.851C45.3801 113.67 41.9856 113.67 38.7616 112.851C37.9015 109.794 37.9046 106.576 38.7705 103.52C39.6365 100.464 41.3348 97.6782 43.6951 95.4416C46.0553 93.205 48.9944 91.5967 52.2173 90.7779C55.4402 89.9592 58.8335 89.9589 62.0566 90.7771V90.7681ZM0.0665011 90.0923H19.1623L19.0863 90.1554C16.7251 92.3944 13.7841 94.0045 10.5588 94.8237C7.33349 95.643 3.93761 95.6426 0.712528 94.8225C0.278011 93.2797 0.0607809 91.6892 0.0665011 90.0923ZM41.4977 111.536C44.0942 111.856 46.7335 111.606 49.2121 110.806C51.6908 110.006 53.9426 108.677 55.794 106.921C57.6454 105.165 59.047 103.03 59.8906 100.679C60.7343 98.3283 60.9975 95.8253 60.66 93.3629L41.4977 111.536ZM48.338 94.2639V102.508L59.311 92.0925C55.5488 91.642 51.6632 92.3628 48.319 94.2549L48.338 94.2639ZM45.0224 96.7146C41.1272 100.409 39.5026 105.445 40.1487 110.256L46.4284 104.31V95.5163C45.9439 95.8857 45.4784 96.2821 45.0224 96.7146ZM16.3217 90.0923H7.04929L3.45814 93.4981C5.73354 93.7778 8.04504 93.6205 10.255 93.0354C12.4649 92.4503 14.5281 91.4494 16.3217 90.0923ZM1.97608 90.0923C1.96658 90.8131 2.01408 91.5159 2.10909 92.2277L4.36068 90.0923H1.96658H1.97608Z" fill="#CF0921"/>
<path d="M62.0566 234.927C62.9188 237.985 62.9173 241.204 62.0523 244.261C61.1873 247.318 59.4892 250.106 57.1286 252.343C54.7681 254.581 51.8281 256.191 48.6041 257.01C45.3801 257.829 41.9856 257.829 38.7616 257.01C37.9015 253.953 37.9046 250.734 38.7705 247.679C39.6365 244.623 41.3348 241.837 43.6951 239.6C46.0553 237.364 48.9944 235.755 52.2173 234.936C55.4402 234.118 58.8335 234.117 62.0566 234.936V234.927ZM0.0665011 234.251H19.1623L19.0863 234.314C16.7251 236.553 13.7841 238.163 10.5588 238.982C7.33349 239.802 3.93761 239.801 0.712528 238.981C0.278011 237.438 0.0607809 235.848 0.0665011 234.251ZM41.4977 255.694C44.0942 256.014 46.7335 255.765 49.2121 254.965C51.6908 254.165 53.9426 252.835 55.794 251.08C57.6454 249.324 59.047 247.188 59.8906 244.838C60.7343 242.487 60.9975 239.984 60.66 237.521L41.4977 255.694ZM48.338 238.422V246.667L59.311 236.251C55.5488 235.801 51.6632 236.521 48.319 238.413L48.338 238.422ZM45.0224 240.873C41.1272 244.567 39.5026 249.604 40.1487 254.415L46.4284 248.468V239.675C45.9439 240.044 45.4784 240.441 45.0224 240.873ZM16.3217 234.251H7.04929L3.45814 237.657C5.73354 237.936 8.04504 237.779 10.255 237.194C12.4649 236.609 14.5281 235.608 16.3217 234.251ZM1.97608 234.251C1.96658 234.972 2.01408 235.674 2.10909 236.386L4.36068 234.251H1.96658H1.97608Z" fill="#CF0921"/>
<path d="M149.94 126.132C149.947 123.767 150.446 121.428 151.408 119.246C152.369 117.065 153.775 115.085 155.545 113.419C157.922 111.173 160.878 109.558 164.119 108.736C167.36 107.914 170.772 107.913 174.014 108.734C174.88 111.785 174.885 114.999 174.028 118.053C173.171 121.106 171.482 123.893 169.131 126.132H149.94ZM211.996 90.7681C212.859 93.826 212.857 97.0452 211.992 100.102C211.127 103.16 209.429 105.947 207.069 108.185C204.708 110.423 201.768 112.032 198.544 112.851C195.32 113.67 191.926 113.67 188.702 112.851C187.841 109.794 187.844 106.576 188.71 103.52C189.576 100.464 191.275 97.6782 193.635 95.4416C195.995 93.205 198.934 91.5967 202.157 90.7779C205.38 89.9592 208.773 89.9589 211.996 90.7771V90.7681ZM150.006 90.0923H169.102L169.026 90.1554C166.665 92.3944 163.724 94.0045 160.499 94.8237C157.273 95.643 153.878 95.6426 150.652 94.8225C150.218 93.2797 150.001 91.6892 150.006 90.0923V90.0923ZM151.849 126.132H154.253L158.3 122.312V113.5C156.292 115.01 154.669 116.93 153.55 119.117C152.432 121.304 151.847 123.701 151.84 126.132H151.849ZM156.961 126.132H166.271C168.585 124.395 170.385 122.119 171.495 119.527C172.606 116.934 172.989 114.113 172.608 111.338L156.97 126.132H156.961ZM160.219 112.239V120.501L171.259 110.058C167.487 109.608 163.582 110.329 160.219 112.239ZM191.438 111.536C194.034 111.856 196.673 111.606 199.152 110.806C201.631 110.006 203.882 108.677 205.734 106.921C207.585 105.165 208.987 103.03 209.831 100.679C210.674 98.3283 210.937 95.8253 210.6 93.3629L191.438 111.536ZM198.278 94.2639V102.508L209.251 92.0925C205.489 91.642 201.603 92.3628 198.259 94.2549L198.278 94.2639ZM194.962 96.7146C191.067 100.409 189.443 105.445 190.089 110.256L196.368 104.31V95.5163C195.884 95.8857 195.418 96.2821 194.962 96.7146ZM166.262 90.0923H156.989L153.398 93.4981C155.673 93.7778 157.985 93.6205 160.195 93.0354C162.405 92.4503 164.468 91.4494 166.262 90.0923V90.0923ZM151.916 90.0923C151.906 90.8131 151.954 91.5159 152.049 92.2277L154.301 90.0923H151.906H151.916Z" fill="#CF0921"/>
<path d="M76.333 126.132C76.3402 123.767 76.839 121.428 77.8008 119.246C78.7626 117.065 80.1686 115.085 81.9383 113.419C84.3148 111.173 87.2715 109.558 90.5126 108.736C93.7536 107.914 97.1655 107.913 100.407 108.734C101.273 111.785 101.278 114.999 100.421 118.053C99.5636 121.106 97.8749 123.893 95.5238 126.132H76.333ZM138.39 90.7681C139.252 93.826 139.25 97.0452 138.385 100.102C137.52 103.16 135.822 105.947 133.462 108.185C131.101 110.423 128.161 112.032 124.937 112.851C121.713 113.67 118.319 113.67 115.095 112.851C114.235 109.794 114.238 106.576 115.104 103.52C115.97 100.464 117.668 97.6782 120.028 95.4416C122.388 93.205 125.327 91.5967 128.55 90.7779C131.773 89.9592 135.167 89.9589 138.39 90.7771V90.7681ZM76.3995 90.0923H95.4953L95.4193 90.1554C93.0582 92.3944 90.1171 94.0045 86.8918 94.8237C83.6665 95.643 80.2706 95.6426 77.0456 94.8225C76.6111 93.2797 76.3938 91.6892 76.3995 90.0923ZM78.2426 126.132H80.6462L84.6934 122.312V113.5C82.6854 115.01 81.0619 116.93 79.9435 119.117C78.8251 121.304 78.2405 123.701 78.2331 126.132H78.2426ZM83.3538 126.132H92.6642C94.9779 124.395 96.7777 122.119 97.8882 119.527C98.9987 116.934 99.3821 114.113 99.001 111.338L83.3633 126.132H83.3538ZM86.6125 112.239V120.501L97.6519 110.058C93.8803 109.608 89.9756 110.329 86.6125 112.239ZM117.831 111.536C120.427 111.856 123.067 111.606 125.545 110.806C128.024 110.006 130.276 108.677 132.127 106.921C133.978 105.165 135.38 103.03 136.224 100.679C137.067 98.3283 137.331 95.8253 136.993 93.3629L117.831 111.536ZM124.671 94.2639V102.508L135.644 92.0925C131.882 91.642 127.996 92.3628 124.652 94.2549L124.671 94.2639ZM121.355 96.7146C117.46 100.409 115.836 105.445 116.482 110.256L122.761 104.31V95.5163C122.277 95.8857 121.811 96.2821 121.355 96.7146ZM92.6547 90.0923H83.3823L79.7912 93.4981C82.0666 93.7778 84.3781 93.6205 86.588 93.0354C88.798 92.4503 90.8612 91.4494 92.6547 90.0923ZM78.3091 90.0923C78.2996 90.8131 78.3471 91.5159 78.4421 92.2277L80.6937 90.0923H78.2996H78.3091Z" fill="#CF0921"/>
<path d="M76.3995 234.251H95.4953L95.4193 234.314C93.0582 236.553 90.1171 238.163 86.8918 238.982C83.6665 239.802 80.2706 239.801 77.0456 238.981C76.611 237.438 76.3938 235.848 76.3995 234.251ZM92.6547 234.251H83.3823L79.7912 237.657C82.0666 237.936 84.3781 237.779 86.588 237.194C88.798 236.609 90.8611 235.608 92.6547 234.251ZM78.3091 234.251C78.2996 234.972 78.3471 235.674 78.4421 236.386L80.6937 234.251H78.2996H78.3091Z" fill="#CF0921"/>
<path d="M0 54.0527C0.00719235 51.6882 0.505968 49.3483 1.46778 47.1669C2.4296 44.9854 3.83557 43.0053 5.60523 41.3397C7.98177 39.0938 10.9384 37.479 14.1795 36.6568C17.4206 35.8346 20.8325 35.8338 24.074 36.6546C24.9401 39.706 24.9448 42.9198 24.0877 45.9735C23.2306 49.0272 21.5418 51.8134 19.1908 54.0527H0ZM62.0566 18.6888C62.9188 21.7468 62.9173 24.966 62.0523 28.0232C61.1873 31.0804 59.4892 33.8679 57.1286 36.1057C54.7681 38.3435 51.8281 39.9527 48.6041 40.7718C45.3801 41.5909 41.9856 41.591 38.7616 40.7721C37.9015 37.7148 37.9046 34.4967 38.7705 31.4408C39.6365 28.385 41.3348 25.5989 43.695 23.3624C46.0553 21.1258 48.9944 19.5174 52.2173 18.6987C55.4402 17.8799 58.8335 17.8797 62.0566 18.6978V18.6888ZM0.0665028 18.0131H19.1623L19.0863 18.0762C16.7251 20.3152 13.7841 21.9252 10.5588 22.7445C7.33349 23.5637 3.93761 23.5633 0.71253 22.7433C0.278012 21.2005 0.0607826 19.61 0.0665028 18.0131V18.0131ZM1.90958 54.0527H4.31318L8.36035 50.2325V41.4208C6.35237 42.9311 4.7289 44.8509 3.61049 47.0377C2.49209 49.2246 1.90748 51.6222 1.90008 54.0527H1.90958ZM7.02079 54.0527H16.3312C18.6448 52.3158 20.4446 50.0402 21.5551 47.4475C22.6657 44.8548 23.0491 42.0335 22.6679 39.2584L7.03029 54.0527H7.02079ZM10.2794 40.1594V48.4215L21.3189 37.979C17.5472 37.5285 13.6426 38.2493 10.2794 40.1594ZM41.4977 39.4567C44.0942 39.7767 46.7335 39.5271 49.2121 38.727C51.6908 37.9269 53.9426 36.5977 55.794 34.8419C57.6454 33.086 59.047 30.9505 59.8906 28.5998C60.7343 26.2491 60.9975 23.7461 60.66 21.2837L41.4977 39.4567ZM48.338 22.1847V30.4287L59.311 20.0133C55.5488 19.5628 51.6632 20.2836 48.319 22.1757L48.338 22.1847ZM45.0224 24.6354C41.1272 28.3294 39.5026 33.366 40.1487 38.1773L46.4284 32.2307V23.4371C45.9439 23.8065 45.4784 24.2029 45.0224 24.6354ZM16.3217 18.0131H7.04929L3.45814 21.4188C5.73355 21.6986 8.04504 21.5412 10.255 20.9561C12.4649 20.371 14.5281 19.3702 16.3217 18.0131V18.0131ZM1.97608 18.0131C1.96658 18.7339 2.01408 19.4367 2.10909 20.1484L4.36068 18.0131H1.96658H1.97608Z" fill="#CF0921"/>
<path d="M0 198.211C0.00719235 195.847 0.505968 193.507 1.46778 191.325C2.4296 189.144 3.83557 187.164 5.60523 185.498C7.98177 183.252 10.9384 181.637 14.1795 180.815C17.4206 179.993 20.8325 179.992 24.074 180.813C24.9401 183.864 24.9448 187.078 24.0877 190.132C23.2306 193.186 21.5418 195.972 19.1908 198.211H0ZM0.0665028 162.172H19.1623L19.0863 162.235C16.7251 164.474 13.7841 166.084 10.5588 166.903C7.33349 167.722 3.93761 167.722 0.71253 166.902C0.278012 165.359 0.0607826 163.768 0.0665028 162.172ZM1.90958 198.211H4.31318L8.36035 194.391V185.579C6.35237 187.09 4.7289 189.009 3.61049 191.196C2.49209 193.383 1.90748 195.781 1.90008 198.211H1.90958ZM7.02079 198.211H16.3312C18.6448 196.474 20.4446 194.199 21.5551 191.606C22.6657 189.013 23.0491 186.192 22.6679 183.417L7.03029 198.211H7.02079ZM10.2794 184.318V192.58L21.3189 182.138C17.5472 181.687 13.6426 182.408 10.2794 184.318ZM16.3217 162.172H7.04929L3.45814 165.577C5.73355 165.857 8.04504 165.7 10.255 165.115C12.4649 164.53 14.5281 163.529 16.3217 162.172ZM1.97608 162.172C1.96658 162.892 2.01408 163.595 2.10909 164.307L4.36068 162.172H1.96658H1.97608Z" fill="#CF0921"/>
<path d="M149.94 198.211C149.947 195.847 150.446 193.507 151.408 191.325C152.369 189.144 153.775 187.164 155.545 185.498C157.922 183.252 160.878 181.637 164.119 180.815C167.36 179.993 170.772 179.992 174.014 180.813C174.88 183.864 174.885 187.078 174.028 190.132C173.171 193.186 171.482 195.972 169.131 198.211H149.94ZM211.996 162.847C212.859 165.905 212.857 169.124 211.992 172.182C211.127 175.239 209.429 178.026 207.069 180.264C204.708 182.502 201.768 184.111 198.544 184.93C195.32 185.749 191.926 185.75 188.702 184.931C187.841 181.873 187.844 178.655 188.71 175.599C189.576 172.543 191.275 169.757 193.635 167.521C195.995 165.284 198.934 163.676 202.157 162.857C205.38 162.038 208.773 162.038 211.996 162.856V162.847ZM150.006 162.172H169.102L169.026 162.235C166.665 164.474 163.724 166.084 160.499 166.903C157.273 167.722 153.878 167.722 150.652 166.902C150.218 165.359 150.001 163.768 150.006 162.172V162.172ZM151.849 198.211H154.253L158.3 194.391V185.579C156.292 187.09 154.669 189.009 153.55 191.196C152.432 193.383 151.847 195.781 151.84 198.211H151.849ZM156.961 198.211H166.271C168.585 196.474 170.385 194.199 171.495 191.606C172.606 189.013 172.989 186.192 172.608 183.417L156.97 198.211H156.961ZM160.219 184.318V192.58L171.259 182.138C167.487 181.687 163.582 182.408 160.219 184.318ZM191.438 183.615C194.034 183.935 196.673 183.686 199.152 182.885C201.631 182.085 203.882 180.756 205.734 179C207.585 177.245 208.987 175.109 209.831 172.758C210.674 170.408 210.937 167.905 210.6 165.442L191.438 183.615ZM198.278 166.343V174.587L209.251 164.172C205.489 163.721 201.603 164.442 198.259 166.334L198.278 166.343ZM194.962 168.794C191.067 172.488 189.443 177.524 190.089 182.336L196.368 176.389V167.596C195.884 167.965 195.418 168.361 194.962 168.794ZM166.262 162.172H156.989L153.398 165.577C155.673 165.857 157.985 165.7 160.195 165.115C162.405 164.53 164.468 163.529 166.262 162.172V162.172ZM151.916 162.172C151.906 162.892 151.954 163.595 152.049 164.307L154.301 162.172H151.906H151.916Z" fill="#CF0921"/>
<path d="M76.333 54.0527C76.3402 51.6883 76.839 49.3483 77.8008 47.1669C78.7626 44.9854 80.1686 43.0053 81.9383 41.3397C84.3148 39.0938 87.2715 37.479 90.5126 36.6568C93.7536 35.8346 97.1655 35.8338 100.407 36.6546C101.273 39.706 101.278 42.9198 100.421 45.9735C99.5636 49.0272 97.8749 51.8134 95.5238 54.0527H76.333ZM138.39 18.6888C139.252 21.7468 139.25 24.966 138.385 28.0232C137.52 31.0804 135.822 33.8679 133.462 36.1057C131.101 38.3435 128.161 39.9527 124.937 40.7718C121.713 41.591 118.319 41.591 115.095 40.7721C114.235 37.7148 114.238 34.4967 115.104 31.4408C115.97 28.385 117.668 25.5989 120.028 23.3624C122.388 21.1258 125.327 19.5174 128.55 18.6987C131.773 17.8799 135.167 17.8797 138.39 18.6978V18.6888ZM78.2426 54.0527H80.6462L84.6934 50.2325V41.4208C82.6854 42.9311 81.0619 44.8509 79.9435 47.0377C78.8251 49.2246 78.2405 51.6222 78.2331 54.0527H78.2426ZM83.3538 54.0527H92.6642C94.9779 52.3158 96.7777 50.0402 97.8882 47.4475C98.9987 44.8548 99.3821 42.0335 99.001 39.2585L83.3633 54.0527H83.3538ZM86.6125 40.1594V48.4215L97.6519 37.979C93.8803 37.5285 89.9756 38.2493 86.6125 40.1594ZM117.831 39.4567C120.427 39.7767 123.067 39.5271 125.545 38.727C128.024 37.9269 130.276 36.5977 132.127 34.8419C133.978 33.086 135.38 30.9505 136.224 28.5998C137.067 26.2491 137.331 23.7461 136.993 21.2837L117.831 39.4567ZM124.671 22.1847V30.4287L135.644 20.0133C131.882 19.5628 127.996 20.2836 124.652 22.1757L124.671 22.1847ZM121.355 24.6354C117.46 28.3294 115.836 33.366 116.482 38.1773L122.761 32.2307V23.4371C122.277 23.8065 121.811 24.2029 121.355 24.6354Z" fill="#CF0921"/>
<path d="M76.333 198.211C76.3402 195.847 76.839 193.507 77.8008 191.325C78.7626 189.144 80.1686 187.164 81.9383 185.498C84.3148 183.252 87.2715 181.637 90.5126 180.815C93.7536 179.993 97.1655 179.992 100.407 180.813C101.273 183.864 101.278 187.078 100.421 190.132C99.5636 193.186 97.8749 195.972 95.5238 198.211H76.333ZM138.39 162.847C139.252 165.905 139.25 169.124 138.385 172.182C137.52 175.239 135.822 178.026 133.462 180.264C131.101 182.502 128.161 184.111 124.937 184.93C121.713 185.749 118.319 185.75 115.095 184.931C114.235 181.873 114.238 178.655 115.104 175.599C115.97 172.543 117.668 169.757 120.028 167.521C122.388 165.284 125.327 163.676 128.55 162.857C131.773 162.038 135.167 162.038 138.39 162.856V162.847ZM76.3995 162.172H95.4953L95.4193 162.235C93.0582 164.474 90.1171 166.084 86.8918 166.903C83.6665 167.722 80.2706 167.722 77.0456 166.902C76.6111 165.359 76.3938 163.768 76.3995 162.172V162.172ZM78.2426 198.211H80.6462L84.6934 194.391V185.579C82.6854 187.09 81.0619 189.009 79.9435 191.196C78.8251 193.383 78.2405 195.781 78.2331 198.211H78.2426ZM83.3538 198.211H92.6642C94.9779 196.474 96.7777 194.199 97.8882 191.606C98.9987 189.013 99.3821 186.192 99.001 183.417L83.3633 198.211H83.3538ZM86.6125 184.318V192.58L97.6519 182.138C93.8803 181.687 89.9756 182.408 86.6125 184.318ZM117.831 183.615C120.427 183.935 123.066 183.686 125.545 182.885C128.024 182.085 130.276 180.756 132.127 179C133.978 177.245 135.38 175.109 136.224 172.758C137.067 170.408 137.331 167.905 136.993 165.442L117.831 183.615ZM124.671 166.343V174.587L135.644 164.172C131.882 163.721 127.996 164.442 124.652 166.334L124.671 166.343ZM121.355 168.794C117.46 172.488 115.836 177.524 116.482 182.336L122.761 176.389V167.596C122.277 167.965 121.811 168.361 121.355 168.794ZM92.6547 162.172H83.3823L79.7912 165.577C82.0666 165.857 84.3781 165.7 86.588 165.115C88.798 164.53 90.8611 163.529 92.6547 162.172V162.172ZM78.3091 162.172C78.2996 162.892 78.3471 163.595 78.4421 164.307L80.6937 162.172H78.2996H78.3091Z" fill="#CF0921"/>
<path d="M226.339 162.172H245.435L245.359 162.235C242.998 164.474 240.057 166.084 236.832 166.903C233.606 167.722 230.211 167.722 226.985 166.902C226.551 165.359 226.334 163.768 226.339 162.172ZM242.595 162.172H233.322L229.731 165.577C232.006 165.857 234.318 165.7 236.528 165.115C238.738 164.53 240.801 163.529 242.595 162.172ZM228.249 162.172C228.24 162.892 228.287 163.595 228.382 164.307L230.634 162.172H228.24H228.249Z" fill="#CF0921"/>
<path d="M0 90.0923C0.00719235 87.7279 0.505968 85.3879 1.46778 83.2065C2.4296 81.0251 3.83557 79.0449 5.60523 77.3793C7.98177 75.1334 10.9384 73.5186 14.1795 72.6964C17.4206 71.8742 20.8325 71.8735 24.074 72.6942C24.9401 75.7456 24.9448 78.9594 24.0877 82.0131C23.2306 85.0668 21.5418 87.853 19.1908 90.0923H0ZM0.0665028 54.0527H19.1623L19.0863 54.1158C16.7251 56.3548 13.7841 57.9648 10.5588 58.7841C7.33349 59.6034 3.93761 59.6029 0.71253 58.7829C0.278012 57.2401 0.0607826 55.6496 0.0665028 54.0527ZM1.90958 90.0923H4.31318L8.36035 86.2721V77.4604C6.35237 78.9707 4.7289 80.8905 3.61049 83.0773C2.49209 85.2642 1.90748 87.6618 1.90008 90.0923H1.90958ZM7.02079 90.0923H16.3312C18.6448 88.3554 20.4446 86.0798 21.5551 83.4871C22.6657 80.8944 23.0491 78.0731 22.6679 75.2981L7.03029 90.0923H7.02079ZM10.2794 76.199V84.4611L21.3189 74.0187C17.5472 73.5682 13.6426 74.2889 10.2794 76.199ZM16.3217 54.0527H7.04929L3.45814 57.4584C5.73355 57.7382 8.04504 57.5809 10.255 56.9958C12.4649 56.4106 14.5281 55.4098 16.3217 54.0527ZM1.97608 54.0527C1.96658 54.7735 2.01408 55.4763 2.10909 56.1881L4.36068 54.0527H1.96658H1.97608Z" fill="#CF0921"/>
<path d="M0 234.251C0.00719235 231.886 0.505968 229.546 1.46778 227.365C2.4296 225.184 3.83557 223.203 5.60523 221.538C7.98177 219.292 10.9384 217.677 14.1795 216.855C17.4206 216.033 20.8325 216.032 24.074 216.853C24.9401 219.904 24.9448 223.118 24.0877 226.172C23.2306 229.225 21.5418 232.012 19.1908 234.251H0ZM62.0566 198.887C62.9188 201.945 62.9173 205.164 62.0523 208.221C61.1873 211.279 59.4892 214.066 57.1286 216.304C54.7681 218.542 51.8281 220.151 48.6041 220.97C45.3801 221.789 41.9856 221.789 38.7616 220.97C37.9015 217.913 37.9046 214.695 38.7705 211.639C39.6365 208.583 41.3348 205.797 43.695 203.561C46.0553 201.324 48.9944 199.716 52.2173 198.897C55.4402 198.078 58.8335 198.078 62.0566 198.896V198.887ZM0.0665028 198.211H19.1623L19.0863 198.274C16.7251 200.513 13.7841 202.123 10.5588 202.943C7.33349 203.762 3.93761 203.761 0.71253 202.941C0.278012 201.399 0.0607826 199.808 0.0665028 198.211V198.211ZM1.90958 234.251H4.31318L8.36035 230.431V221.619C6.35237 223.129 4.7289 225.049 3.61049 227.236C2.49209 229.423 1.90748 231.82 1.90008 234.251H1.90958ZM7.02079 234.251H16.3312C18.6448 232.514 20.4446 230.238 21.5551 227.646C22.6657 225.053 23.0491 222.232 22.6679 219.457L7.03029 234.251H7.02079ZM10.2794 220.358V228.62L21.3189 218.177C17.5472 217.727 13.6426 218.448 10.2794 220.358ZM41.4977 219.655C44.0942 219.975 46.7335 219.725 49.2121 218.925C51.6908 218.125 53.9426 216.796 55.794 215.04C57.6454 213.284 59.047 211.149 59.8906 208.798C60.7343 206.447 60.9975 203.944 60.66 201.482L41.4977 219.655ZM48.338 202.383V210.627L59.311 200.211C55.5488 199.761 51.6632 200.482 48.319 202.374L48.338 202.383ZM45.0224 204.834C41.1272 208.528 39.5026 213.564 40.1487 218.375L46.4284 212.429V203.635C45.9439 204.005 45.4784 204.401 45.0224 204.834ZM16.3217 198.211H7.04929L3.45814 201.617C5.73355 201.897 8.04504 201.739 10.255 201.154C12.4649 200.569 14.5281 199.568 16.3217 198.211V198.211ZM1.97608 198.211C1.96658 198.932 2.01408 199.635 2.10909 200.347L4.36068 198.211H1.96658H1.97608Z" fill="#CF0921"/>
<path d="M149.94 90.0924C149.947 87.7279 150.446 85.388 151.408 83.2065C152.369 81.0251 153.775 79.0449 155.545 77.3794C157.922 75.1335 160.878 73.5186 164.119 72.6965C167.36 71.8743 170.772 71.8735 174.014 72.6942C174.88 75.7456 174.885 78.9594 174.028 82.0131C173.171 85.0668 171.482 87.8531 169.131 90.0924H149.94ZM151.849 90.0924H154.253L158.3 86.2722V77.4605C156.292 78.9707 154.669 80.8905 153.55 83.0774C152.432 85.2642 151.847 87.6619 151.84 90.0924H151.849ZM156.961 90.0924H166.271C168.585 88.3555 170.385 86.0798 171.495 83.4871C172.606 80.8944 172.989 78.0731 172.608 75.2981L156.97 90.0924H156.961ZM160.219 76.1991V84.4612L171.259 74.0187C167.487 73.5682 163.582 74.289 160.219 76.1991Z" fill="#CF0921"/>
<path d="M150.006 198.211H169.102L169.026 198.274C166.665 200.513 163.724 202.123 160.499 202.943C157.273 203.762 153.878 203.761 150.652 202.941C150.218 201.399 150.001 199.808 150.006 198.211ZM166.262 198.211H156.989L153.398 201.617C155.673 201.897 157.985 201.739 160.195 201.154C162.405 200.569 164.468 199.568 166.262 198.211ZM151.916 198.211C151.906 198.932 151.954 199.635 152.049 200.347L154.301 198.211H151.906H151.916Z" fill="#CF0921"/>
<path d="M76.333 90.0923C76.3402 87.7279 76.839 85.3879 77.8008 83.2065C78.7626 81.0251 80.1686 79.0449 81.9383 77.3793C84.3148 75.1334 87.2715 73.5186 90.5126 72.6964C93.7536 71.8742 97.1655 71.8735 100.407 72.6942C101.273 75.7456 101.278 78.9594 100.421 82.0131C99.5636 85.0668 97.8749 87.853 95.5238 90.0923H76.333ZM76.3995 54.0527H95.4953L95.4193 54.1158C93.0582 56.3548 90.1171 57.9648 86.8918 58.7841C83.6665 59.6034 80.2706 59.6029 77.0456 58.7829C76.6111 57.2401 76.3938 55.6496 76.3995 54.0527ZM78.2426 90.0923H80.6462L84.6934 86.2721V77.4604C82.6854 78.9707 81.0619 80.8905 79.9435 83.0773C78.8251 85.2642 78.2405 87.6618 78.2331 90.0923H78.2426ZM83.3538 90.0923H92.6642C94.9779 88.3554 96.7777 86.0798 97.8882 83.4871C98.9987 80.8944 99.3821 78.0731 99.001 75.2981L83.3633 90.0923H83.3538ZM86.6125 76.199V84.4611L97.6519 74.0187C93.8803 73.5682 89.9756 74.2889 86.6125 76.199ZM92.6547 54.0527H83.3823L79.7912 57.4584C82.0666 57.7382 84.3781 57.5809 86.588 56.9958C88.798 56.4106 90.8612 55.4098 92.6547 54.0527ZM78.3091 54.0527C78.2996 54.7735 78.3471 55.4763 78.4421 56.1881L80.6937 54.0527H78.2996H78.3091Z" fill="#CF0921"/>
<path d="M76.333 234.251C76.3402 231.886 76.839 229.546 77.8008 227.365C78.7626 225.184 80.1686 223.203 81.9383 221.538C84.3148 219.292 87.2715 217.677 90.5126 216.855C93.7536 216.033 97.1655 216.032 100.407 216.853C101.273 219.904 101.278 223.118 100.421 226.172C99.5636 229.225 97.8749 232.012 95.5238 234.251H76.333ZM76.3995 198.211H95.4953L95.4193 198.274C93.0582 200.513 90.1171 202.123 86.8918 202.943C83.6665 203.762 80.2706 203.761 77.0456 202.941C76.6111 201.399 76.3938 199.808 76.3995 198.211ZM78.2426 234.251H80.6462L84.6934 230.431V221.619C82.6854 223.129 81.0619 225.049 79.9435 227.236C78.8251 229.423 78.2405 231.82 78.2331 234.251H78.2426ZM83.3538 234.251H92.6642C94.9779 232.514 96.7777 230.238 97.8882 227.646C98.9987 225.053 99.3821 222.232 99.001 219.457L83.3633 234.251H83.3538ZM86.6125 220.358V228.62L97.6519 218.177C93.8803 217.727 89.9756 218.448 86.6125 220.358ZM92.6547 198.211H83.3823L79.7912 201.617C82.0666 201.897 84.3781 201.739 86.588 201.154C88.798 200.569 90.8612 199.568 92.6547 198.211ZM78.3091 198.211C78.2996 198.932 78.3471 199.635 78.4421 200.347L80.6937 198.211H78.2996H78.3091Z" fill="#CF0921"/>
<path d="M0 18.0131C0.00719235 15.6487 0.505968 13.3087 1.46778 11.1273C2.4296 8.94584 3.83557 6.96569 5.60523 5.30014C7.98177 3.05422 10.9384 1.43941 14.1795 0.617214C17.4206 -0.204983 20.8325 -0.20575 24.074 0.61499C24.9401 3.66641 24.9448 6.88017 24.0877 9.93387C23.2306 12.9876 21.5418 15.7738 19.1908 18.0131H0ZM1.90958 18.0131H4.31318L8.36035 14.1929V5.38123C6.35237 6.89148 4.7289 8.8113 3.61049 10.9981C2.49209 13.185 1.90748 15.5826 1.90008 18.0131H1.90958ZM7.02079 18.0131H16.3312C18.6448 16.2762 20.4446 14.0006 21.5551 11.4079C22.6657 8.81517 23.0491 5.99386 22.6679 3.21885L7.03029 18.0131H7.02079ZM10.2794 4.11984V12.3819L21.3189 1.93945C17.5472 1.48895 13.6426 2.20974 10.2794 4.11984Z" fill="#CF0921"/>
<path d="M0 162.172C0.00719235 159.807 0.505968 157.467 1.46778 155.286C2.4296 153.104 3.83557 151.124 5.60523 149.459C7.98177 147.213 10.9384 145.598 14.1795 144.776C17.4206 143.953 20.8325 143.953 24.074 144.773C24.9401 147.825 24.9448 151.039 24.0877 154.092C23.2306 157.146 21.5418 159.932 19.1908 162.172H0ZM62.0566 126.808C62.9188 129.866 62.9173 133.085 62.0523 136.142C61.1873 139.199 59.4892 141.987 57.1286 144.225C54.7681 146.462 51.8281 148.072 48.6041 148.891C45.3801 149.71 41.9856 149.71 38.7616 148.891C37.9015 145.834 37.9046 142.616 38.7705 139.56C39.6365 136.504 41.3348 133.718 43.6951 131.481C46.0553 129.245 48.9944 127.636 52.2173 126.818C55.4402 125.999 58.8335 125.999 62.0566 126.817V126.808ZM1.90958 162.172H4.31318L8.36035 158.351V149.54C6.35237 151.05 4.7289 152.97 3.61049 155.157C2.49209 157.343 1.90748 159.741 1.90008 162.172H1.90958ZM7.02079 162.172H16.3312C18.6448 160.435 20.4446 158.159 21.5551 155.566C22.6657 152.974 23.0491 150.152 22.6679 147.377L7.03029 162.172H7.02079ZM10.2794 148.278V156.54L21.3189 146.098C17.5472 145.647 13.6426 146.368 10.2794 148.278ZM41.4977 147.576C44.0942 147.896 46.7335 147.646 49.2121 146.846C51.6908 146.046 53.9426 144.717 55.794 142.961C57.6454 141.205 59.047 139.069 59.8906 136.719C60.7343 134.368 60.9975 131.865 60.66 129.403L41.4977 147.576ZM48.338 130.304V138.548L59.311 128.132C55.5488 127.682 51.6632 128.402 48.319 130.295L48.338 130.304ZM45.0224 132.754C41.1272 136.448 39.5026 141.485 40.1487 146.296L46.4284 140.35V131.556C45.9439 131.925 45.4784 132.322 45.0224 132.754Z" fill="#CF0921"/>
<path d="M149.94 162.172C149.947 159.807 150.446 157.467 151.408 155.286C152.369 153.104 153.775 151.124 155.545 149.459C157.922 147.213 160.878 145.598 164.119 144.776C167.36 143.953 170.772 143.953 174.014 144.773C174.88 147.825 174.885 151.039 174.028 154.092C173.171 157.146 171.482 159.932 169.131 162.172H149.94ZM150.006 126.132H169.102L169.026 126.195C166.665 128.434 163.724 130.044 160.499 130.863C157.273 131.683 153.878 131.682 150.652 130.862C150.218 129.319 150.001 127.729 150.006 126.132ZM151.849 162.172H154.253L158.3 158.351V149.54C156.292 151.05 154.669 152.97 153.55 155.157C152.432 157.343 151.847 159.741 151.84 162.172H151.849ZM156.961 162.172H166.271C168.585 160.435 170.385 158.159 171.495 155.566C172.606 152.974 172.989 150.152 172.608 147.377L156.97 162.172H156.961ZM160.219 148.278V156.54L171.259 146.098C167.487 145.647 163.582 146.368 160.219 148.278ZM166.262 126.132H156.989L153.398 129.538C155.673 129.817 157.985 129.66 160.195 129.075C162.405 128.49 164.468 127.489 166.262 126.132ZM151.916 126.132C151.906 126.853 151.954 127.556 152.049 128.267L154.301 126.132H151.906H151.916Z" fill="#CF0921"/>
<path d="M76.333 162.172C76.3402 159.807 76.839 157.467 77.8008 155.286C78.7626 153.104 80.1686 151.124 81.9383 149.459C84.3148 147.213 87.2715 145.598 90.5126 144.776C93.7536 143.953 97.1655 143.953 100.407 144.773C101.273 147.825 101.278 151.039 100.421 154.092C99.5636 157.146 97.8749 159.932 95.5238 162.172H76.333ZM76.3995 126.132H95.4953L95.4193 126.195C93.0582 128.434 90.1171 130.044 86.8918 130.863C83.6665 131.683 80.2706 131.682 77.0456 130.862C76.6111 129.319 76.3938 127.729 76.3995 126.132ZM78.2426 162.172H80.6462L84.6934 158.351V149.54C82.6854 151.05 81.0619 152.97 79.9435 155.157C78.8251 157.343 78.2405 159.741 78.2331 162.172H78.2426ZM83.3538 162.172H92.6642C94.9779 160.435 96.7777 158.159 97.8882 155.566C98.9987 152.974 99.3821 150.152 99.001 147.377L83.3633 162.172H83.3538ZM86.6125 148.278V156.54L97.6519 146.098C93.8803 145.647 89.9756 146.368 86.6125 148.278ZM92.6547 126.132H83.3823L79.7912 129.538C82.0666 129.817 84.3781 129.66 86.588 129.075C88.798 128.49 90.8612 127.489 92.6547 126.132ZM78.3091 126.132C78.2996 126.853 78.3471 127.556 78.4421 128.267L80.6937 126.132H78.2996H78.3091Z" fill="#CF0921"/>
<path d="M226.273 162.172C226.28 159.807 226.779 157.467 227.741 155.286C228.703 153.104 230.109 151.124 231.878 149.459C234.255 147.213 237.211 145.598 240.452 144.776C243.694 143.953 247.105 143.953 250.347 144.773C251.213 147.825 251.218 151.039 250.361 154.092C249.504 157.146 247.815 159.932 245.464 162.172H226.273ZM228.183 162.172H230.586L234.633 158.351V149.54C232.625 151.05 231.002 152.97 229.883 155.157C228.765 157.343 228.18 159.741 228.173 162.172H228.183ZM233.294 162.172H242.604C244.918 160.435 246.718 158.159 247.828 155.566C248.939 152.974 249.322 150.152 248.941 147.377L233.303 162.172H233.294ZM236.552 148.278V156.54L247.592 146.098C243.82 145.647 239.916 146.368 236.552 148.278Z" fill="#CF0921"/>
</svg>
